<svg preserveAspectRatio="none" overflow="visible" style="display: block;" width="68" height="68" viewBox="0 0 68 68" fill="none" xmlns="http://www.w3.org/2000/svg">
<g id="part" clip-path="url(#clip0_1176_8586)">
<path id="Subtract" fill-rule="evenodd" clip-rule="evenodd" d="M66.5476 15.1909C69.4207 18.0641 68.7231 22.8925 65.1541 24.8348L50.2426 32.9498C49.2953 33.4654 49.2994 34.8266 50.2497 35.3365L64.0646 42.749C67.6486 44.672 68.362 49.508 65.4859 52.384C63.6233 54.2467 60.7713 54.6943 58.4275 53.4919L50.9724 49.6673C49.7998 49.0658 48.5448 50.3208 49.1463 51.4934L52.9688 58.945C54.1711 61.2888 53.7235 64.1406 51.8608 66.0032C48.9848 68.8793 44.1489 68.1658 42.2259 64.5818L34.5595 50.2931C34.0443 49.3329 32.6645 49.3414 32.1611 50.3077L24.639 64.7475C22.5611 68.7362 17.2077 69.5593 14.0275 66.3791C11.9409 64.2925 11.4769 61.0813 12.8875 58.4894L14.7192 55.1235C15.3654 53.936 14.0668 52.6373 12.8793 53.2836L9.51369 55.1153C6.92181 56.5259 3.71056 56.0619 1.624 53.9753C-1.5562 50.7951 -0.73301 45.4416 3.25572 43.3637L18.5068 35.4187C19.4833 34.91 19.4789 33.511 18.4992 33.0085L3.45809 25.2927C-0.546714 23.2383 -1.38819 17.8776 1.79452 14.6949C3.8643 12.6251 7.04566 12.1559 9.62495 13.5398L12.9845 15.3423C14.1685 15.9775 15.4563 14.6896 14.8211 13.5057L13.0167 10.1424C11.6328 7.56308 12.1021 4.38161 14.1719 2.31182C17.3546 -0.8708 22.715 -0.0293283 24.7695 3.97539L32.2279 18.5145C32.7254 19.4841 34.1053 19.5008 34.6263 18.5436L43.168 2.84901C45.1103 -0.719946 49.9387 -1.4176 52.8119 1.45552C54.6896 3.33319 55.1324 6.21193 53.9056 8.56697L49.8815 16.2915C49.2687 17.468 50.5347 18.7342 51.7112 18.1214L59.4361 14.0972C61.7912 12.8704 64.6699 13.3132 66.5476 15.1909ZM38.4623 28.9519C35.7976 26.2872 31.4771 26.2873 28.8123 28.952C26.1477 31.6168 26.1477 35.9371 28.8123 38.6019C31.4771 41.2666 35.7976 41.2667 38.4623 38.602C41.1271 35.9372 41.1271 31.6166 38.4623 28.9519Z" fill="#8158F6"/>
</g>
<defs>
<clipPath id="clip0_1176_8586">
<rect width="68" height="68" fill="white"/>
</clipPath>
</defs>
</svg>
